<mxfile host="app.diagrams.net" version="27.2.0">
  <diagram name="Professional Use Case Specification" id="taoduannhom_spec">
    <mxGraphModel dx="1138" dy="408" grid="1" gridSize="10" guides="1" tooltips="1" connect="1" arrows="1" fold="1" page="1" pageScale="1" pageWidth="827" pageHeight="1169" background="#ffffff" math="0" shadow="0">
      <root>
        <mxCell id="0" />
        <mxCell id="1" parent="0" />
        <mxCell id="spec-container-teamproject" value="" style="rounded=0;whiteSpace=wrap;html=1;shadow=0;strokeWidth=1;fillColor=none;verticalAlign=top;align=left;spacingLeft=10;spacingTop=10;" parent="1" vertex="1">
          <mxGeometry x="40" y="40" width="740" height="1000" as="geometry" />
        </mxCell>
        <mxCell id="title-teamproject" value="&lt;b style=&quot;font-size: 14px;&quot;&gt;Đặc tả use case 'Tạo/Gán Dự án Trong Nhóm'&lt;/b&gt;" style="text;html=1;strokeColor=none;fillColor=none;align=left;verticalAlign=middle;whiteSpace=wrap;rounded=0;spacingLeft=5;fontFamily=Helvetica;" parent="spec-container-teamproject" vertex="1">
          <mxGeometry width="740" height="40" as="geometry" />
        </mxCell>
        <mxCell id="table-info" value="" style="shape=table;startSize=0;container=1;collapsible=0;childLayout=tableLayout;fixedRows=1;rowLines=1;fontStyle=0;align=center;resizeLast=1;fontFamily=Helvetica;fontSize=12;" parent="spec-container-teamproject" vertex="1">
          <mxGeometry y="40" width="740" height="210" as="geometry" />
        </mxCell>
        <mxCell id="info-row1" style="shape=tableRow;horizontal=0;startSize=0;swimlaneHead=0;swimlaneBody=0;top=0;left=0;bottom=0;right=0;collapsible=0;dropTarget=0;fillColor=none;" parent="table-info" vertex="1">
          <mxGeometry width="740" height="30" as="geometry" />
        </mxCell>
        <mxCell id="info-r1c1" value="&lt;b&gt;Tên use case&lt;/b&gt;" style="shape=partialRectangle;html=1;collapsible=0;dropTarget=0;pointerEvents=0;fillColor=none;top=0;left=0;bottom=0;right=0;strokeColor=inherit;align=left;verticalAlign=middle;spacingLeft=5;" parent="info-row1" vertex="1">
          <mxGeometry width="220" height="30" as="geometry" />
        </mxCell>
        <mxCell id="info-r1c2" value="Tạo/Gán Dự án Trong Nhóm" style="shape=partialRectangle;html=1;collapsible=0;dropTarget=0;pointerEvents=0;fillColor=none;top=0;left=0;bottom=0;right=0;strokeColor=inherit;align=left;verticalAlign=middle;spacingLeft=5;" parent="info-row1" vertex="1">
          <mxGeometry x="220" width="520" height="30" as="geometry" />
        </mxCell>
        <mxCell id="info-row2" style="shape=tableRow;horizontal=0;startSize=0;swimlaneHead=0;swimlaneBody=0;top=0;left=0;bottom=0;right=0;collapsible=0;dropTarget=0;fillColor=none;" parent="table-info" vertex="1">
          <mxGeometry y="30" width="740" height="60" as="geometry" />
        </mxCell>
        <mxCell id="info-r2c1" value="&lt;b&gt;Mô tả sơ lược&lt;/b&gt;" style="shape=partialRectangle;html=1;collapsible=0;dropTarget=0;pointerEvents=0;fillColor=none;top=0;left=0;bottom=0;right=0;strokeColor=inherit;align=left;verticalAlign=middle;spacingLeft=5;whiteSpace=wrap;" parent="info-row2" vertex="1">
          <mxGeometry width="220" height="60" as="geometry" />
        </mxCell>
        <mxCell id="info-r2c2" value="Chức năng này cho phép người dùng hoặc quản trị viên tạo dự án mới hoặc gán dự án có sẵn vào một nhóm làm việc trong hệ thống UniPlan." style="shape=partialRectangle;html=1;collapsible=0;dropTarget=0;pointerEvents=0;fillColor=none;top=0;left=0;bottom=0;right=0;strokeColor=inherit;align=left;verticalAlign=middle;spacingLeft=5;whiteSpace=wrap;" parent="info-row2" vertex="1">
          <mxGeometry x="220" width="520" height="60" as="geometry" />
        </mxCell>
        <mxCell id="info-row3" style="shape=tableRow;horizontal=0;startSize=0;swimlaneHead=0;swimlaneBody=0;top=0;left=0;bottom=0;right=0;collapsible=0;dropTarget=0;fillColor=none;" parent="table-info" vertex="1">
          <mxGeometry y="90" width="740" height="30" as="geometry" />
        </mxCell>
        <mxCell id="info-r3c1" value="&lt;b&gt;Actor chính&lt;/b&gt;" style="shape=partialRectangle;html=1;collapsible=0;dropTarget=0;pointerEvents=0;fillColor=none;top=0;left=0;bottom=0;right=0;strokeColor=inherit;align=left;verticalAlign=middle;spacingLeft=5;" parent="info-row3" vertex="1">
          <mxGeometry width="220" height="30" as="geometry" />
        </mxCell>
        <mxCell id="info-r3c2" value="Người dùng, Quản trị viên" style="shape=partialRectangle;html=1;collapsible=0;dropTarget=0;pointerEvents=0;fillColor=none;top=0;left=0;bottom=0;right=0;strokeColor=inherit;align=left;verticalAlign=middle;spacingLeft=5;" parent="info-row3" vertex="1">
          <mxGeometry x="220" width="520" height="30" as="geometry" />
        </mxCell>
        <mxCell id="info-row4" style="shape=tableRow;horizontal=0;startSize=0;swimlaneHead=0;swimlaneBody=0;top=0;left=0;bottom=0;right=0;collapsible=0;dropTarget=0;fillColor=none;" parent="table-info" vertex="1">
          <mxGeometry y="120" width="740" height="30" as="geometry" />
        </mxCell>
        <mxCell id="info-r4c1" value="&lt;b&gt;Tiền điều kiện (Pre-condition)&lt;/b&gt;" style="shape=partialRectangle;html=1;collapsible=0;dropTarget=0;pointerEvents=0;fillColor=none;top=0;left=0;bottom=0;right=0;strokeColor=inherit;align=left;verticalAlign=middle;spacingLeft=5;" parent="info-row4" vertex="1">
          <mxGeometry width="220" height="30" as="geometry" />
        </mxCell>
        <mxCell id="info-r4c2" value="Người dùng đã đăng nhập vào hệ thống và là thành viên của nhóm hoặc có quyền quản trị." style="shape=partialRectangle;html=1;collapsible=0;dropTarget=0;pointerEvents=0;fillColor=none;top=0;left=0;bottom=0;right=0;strokeColor=inherit;align=left;verticalAlign=middle;spacingLeft=5;" parent="info-row4" vertex="1">
          <mxGeometry x="220" width="520" height="30" as="geometry" />
        </mxCell>
        <mxCell id="info-row5" style="shape=tableRow;horizontal=0;startSize=0;swimlaneHead=0;swimlaneBody=0;top=0;left=0;bottom=0;right=0;collapsible=0;dropTarget=0;fillColor=none;" parent="table-info" vertex="1">
          <mxGeometry y="150" width="740" height="60" as="geometry" />
        </mxCell>
        <mxCell id="info-r5c1" value="&lt;b&gt;Hậu điều kiện (Post-condition)&lt;/b&gt;" style="shape=partialRectangle;html=1;collapsible=0;dropTarget=0;pointerEvents=0;fillColor=none;top=0;left=0;bottom=0;right=0;strokeColor=inherit;align=left;verticalAlign=middle;spacingLeft=5;whiteSpace=wrap;" parent="info-row5" vertex="1">
          <mxGeometry width="220" height="60" as="geometry" />
        </mxCell>
        <mxCell id="info-r5c2" value="&lt;b&gt;Thành công:&lt;/b&gt; Dự án được tạo mới hoặc gán vào nhóm thành công, thông tin được cập nhật trong CSDL.&lt;br&gt;&lt;b&gt;Thất bại:&lt;/b&gt; Hiển thị thông báo lỗi tương ứng và dữ liệu không thay đổi." style="shape=partialRectangle;html=1;collapsible=0;dropTarget=0;pointerEvents=0;fillColor=none;top=0;left=0;bottom=0;right=0;strokeColor=inherit;align=left;verticalAlign=middle;spacingLeft=5;whiteSpace=wrap;" parent="info-row5" vertex="1">
          <mxGeometry x="220" width="520" height="60" as="geometry" />
        </mxCell>
        <mxCell id="table-mainflow-teamproject" value="" style="shape=table;startSize=0;container=1;collapsible=0;childLayout=tableLayout;fixedRows=1;rowLines=1;fontStyle=0;align=center;resizeLast=1;fontFamily=Helvetica;fontSize=12;" parent="spec-container-teamproject" vertex="1">
          <mxGeometry y="270" width="740" height="300" as="geometry" />
        </mxCell>
        <mxCell id="mainflow-title-row" style="shape=tableRow;horizontal=0;startSize=0;swimlaneHead=0;swimlaneBody=0;top=0;left=0;bottom=0;right=0;collapsible=0;dropTarget=0;fillColor=none;" parent="table-mainflow-teamproject" vertex="1">
          <mxGeometry width="740" height="30" as="geometry" />
        </mxCell>
        <mxCell id="mainflow-title-cell" value="&lt;b&gt;Dòng sự kiện chính (main flow)&lt;/b&gt;" style="shape=partialRectangle;html=1;collapsible=0;dropTarget=0;pointerEvents=0;fillColor=none;top=0;left=0;bottom=0;right=0;strokeColor=inherit;align=center;verticalAlign=middle;" parent="mainflow-title-row" vertex="1">
          <mxGeometry width="740" height="30" as="geometry" />
        </mxCell>
        <mxCell id="mainflow-header-row" style="shape=tableRow;horizontal=0;startSize=0;swimlaneHead=0;swimlaneBody=0;top=0;left=0;bottom=0;right=0;collapsible=0;dropTarget=0;fillColor=#f5f5f5;" parent="table-mainflow-teamproject" vertex="1">
          <mxGeometry y="30" width="740" height="30" as="geometry" />
        </mxCell>
        <mxCell id="mainflow-h1" value="&lt;b&gt;Actor&lt;/b&gt;" style="shape=partialRectangle;html=1;collapsible=0;dropTarget=0;pointerEvents=0;fillColor=none;top=0;left=0;bottom=0;right=0;strokeColor=inherit;align=center;verticalAlign=middle;" parent="mainflow-header-row" vertex="1">
          <mxGeometry width="370" height="30" as="geometry" />
        </mxCell>
        <mxCell id="mainflow-h2" value="&lt;b&gt;System&lt;/b&gt;" style="shape=partialRectangle;html=1;collapsible=0;dropTarget=0;pointerEvents=0;fillColor=none;top=0;left=0;bottom=0;right=0;strokeColor=inherit;align=center;verticalAlign=middle;" parent="mainflow-header-row" vertex="1">
          <mxGeometry x="370" width="370" height="30" as="geometry" />
        </mxCell>
        <mxCell id="mainflow-content-row" style="shape=tableRow;horizontal=0;startSize=0;swimlaneHead=0;swimlaneBody=0;top=0;left=0;bottom=0;right=0;collapsible=0;dropTarget=0;fillColor=none;" parent="table-mainflow-teamproject" vertex="1">
          <mxGeometry y="60" width="740" height="240" as="geometry" />
        </mxCell>
        <mxCell id="mainflow-r1c1" value="1. Truy cập chức năng quản lý dự án trong nhóm.&lt;br&gt;2. Chọn một trong hai tùy chọn:&lt;br&gt;   - Tạo dự án mới cho nhóm&lt;br&gt;   - Gán dự án có sẵn vào nhóm&lt;br&gt;3. Nếu tạo dự án mới:&lt;br&gt;   - Nhập thông tin dự án (tên, mô tả, thời gian, v.v.)&lt;br&gt;4. Nếu gán dự án có sẵn:&lt;br&gt;   - Tìm kiếm và chọn dự án từ danh sách&lt;br&gt;5. Xác nhận thao tác." style="shape=partialRectangle;html=1;collapsible=0;dropTarget=0;pointerEvents=0;fillColor=none;top=0;left=0;bottom=0;right=0;strokeColor=inherit;align=left;verticalAlign=top;whiteSpace=wrap;spacingLeft=5;" parent="mainflow-content-row" vertex="1">
          <mxGeometry width="370" height="240" as="geometry" />
        </mxCell>
        <mxCell id="mainflow-r1c2" value="1. Hiển thị giao diện quản lý dự án nhóm.&lt;br&gt;2. Hiển thị các tùy chọn: Tạo mới/Gán có sẵn.&lt;br&gt;3. Xử lý theo lựa chọn:&lt;br&gt;   a) Tạo dự án mới:&lt;br&gt;   - &lt;i&gt;Include: Kiểm tra thông tin hợp lệ&lt;/i&gt;&lt;br&gt;   - &lt;i&gt;Include: Kiểm tra quyền tạo dự án&lt;/i&gt;&lt;br&gt;   - Tạo dự án mới trong CSDL&lt;br&gt;   b) Gán dự án có sẵn:&lt;br&gt;   - &lt;i&gt;Include: Tìm kiếm dự án&lt;/i&gt;&lt;br&gt;   - &lt;i&gt;Include: Kiểm tra quyền gán dự án&lt;/i&gt;&lt;br&gt;   - Cập nhật liên kết dự án-nhóm&lt;br&gt;4. Cập nhật CSDL.&lt;br&gt;5. Hiển thị kết quả.&lt;br&gt;6. Cập nhật giao diện." style="shape=partialRectangle;html=1;collapsible=0;dropTarget=0;pointerEvents=0;fillColor=none;top=0;left=0;bottom=0;right=0;strokeColor=inherit;align=left;verticalAlign=top;whiteSpace=wrap;spacingLeft=5;" parent="mainflow-content-row" vertex="1">
          <mxGeometry x="370" width="370" height="240" as="geometry" />
        </mxCell>
        <mxCell id="table-exceptionflow-teamproject" value="" style="shape=table;startSize=0;container=1;collapsible=0;childLayout=tableLayout;fixedRows=1;rowLines=1;fontStyle=0;align=center;resizeLast=1;fontFamily=Helvetica;fontSize=12;" parent="spec-container-teamproject" vertex="1">
          <mxGeometry y="590" width="740" height="410" as="geometry" />
        </mxCell>
        <mxCell id="exceptionflow-title-row" style="shape=tableRow;horizontal=0;startSize=0;swimlaneHead=0;swimlaneBody=0;top=0;left=0;bottom=0;right=0;collapsible=0;dropTarget=0;fillColor=none;" parent="table-exceptionflow-teamproject" vertex="1">
          <mxGeometry width="740" height="30" as="geometry" />
        </mxCell>
        <mxCell id="exceptionflow-title-cell" value="&lt;b&gt;Dòng sự kiện thay thế &amp;amp; ngoại lệ (alternative &amp;amp; exception flow)&lt;/b&gt;" style="shape=partialRectangle;html=1;collapsible=0;dropTarget=0;pointerEvents=0;fillColor=none;top=0;left=0;bottom=0;right=0;strokeColor=inherit;align=center;verticalAlign=middle;" parent="exceptionflow-title-row" vertex="1">
          <mxGeometry width="740" height="30" as="geometry" />
        </mxCell>
        <mxCell id="exceptionflow-header-row" style="shape=tableRow;horizontal=0;startSize=0;swimlaneHead=0;swimlaneBody=0;top=0;left=0;bottom=0;right=0;collapsible=0;dropTarget=0;fillColor=#f5f5f5;" parent="table-exceptionflow-teamproject" vertex="1">
          <mxGeometry y="30" width="740" height="30" as="geometry" />
        </mxCell>
        <mxCell id="exceptionflow-h1" value="&lt;b&gt;Điều kiện ngoại lệ&lt;/b&gt;" style="shape=partialRectangle;html=1;collapsible=0;dropTarget=0;pointerEvents=0;fillColor=none;top=0;left=0;bottom=0;right=0;strokeColor=inherit;align=center;verticalAlign=middle;" parent="exceptionflow-header-row" vertex="1">
          <mxGeometry width="370" height="30" as="geometry" />
        </mxCell>
        <mxCell id="exceptionflow-h2" value="&lt;b&gt;Hành động của hệ thống&lt;/b&gt;" style="shape=partialRectangle;html=1;collapsible=0;dropTarget=0;pointerEvents=0;fillColor=none;top=0;left=0;bottom=0;right=0;strokeColor=inherit;align=center;verticalAlign=middle;" parent="exceptionflow-header-row" vertex="1">
          <mxGeometry x="370" width="370" height="30" as="geometry" />
        </mxCell>
        <mxCell id="exceptionflow-row1" style="shape=tableRow;horizontal=0;startSize=0;swimlaneHead=0;swimlaneBody=0;top=0;left=0;bottom=0;right=0;collapsible=0;dropTarget=0;fillColor=none;" parent="table-exceptionflow-teamproject" vertex="1">
          <mxGeometry y="60" width="740" height="120" as="geometry" />
        </mxCell>
        <mxCell id="exceptionflow-r1c1" value="&lt;b&gt;3a. Thông tin dự án không hợp lệ&lt;/b&gt;&lt;br&gt;Khi tạo dự án mới, nếu thông tin nhập vào không hợp lệ (tên trống, thời gian không đúng, v.v.)." style="shape=partialRectangle;html=1;collapsible=0;dropTarget=0;pointerEvents=0;fillColor=none;top=0;left=0;bottom=0;right=0;strokeColor=inherit;align=left;verticalAlign=top;whiteSpace=wrap;spacingLeft=5;" parent="exceptionflow-row1" vertex="1">
          <mxGeometry width="370" height="120" as="geometry" />
        </mxCell>
        <mxCell id="exceptionflow-r1c2" value="1. Hệ thống hiển thị thông báo lỗi cụ thể cho từng trường dữ liệu.&lt;br&gt;2. Giữ lại các thông tin đã nhập đúng.&lt;br&gt;3. Yêu cầu người dùng sửa lại thông tin sai.&lt;br&gt;4. Quay lại bước 3 của luồng chính." style="shape=partialRectangle;html=1;collapsible=0;dropTarget=0;pointerEvents=0;fillColor=none;top=0;left=0;bottom=0;right=0;strokeColor=inherit;align=left;verticalAlign=top;whiteSpace=wrap;spacingLeft=5;" parent="exceptionflow-row1" vertex="1">
          <mxGeometry x="370" width="370" height="120" as="geometry" />
        </mxCell>
        <mxCell id="exceptionflow-row2" style="shape=tableRow;horizontal=0;startSize=0;swimlaneHead=0;swimlaneBody=0;top=0;left=0;bottom=0;right=0;collapsible=0;dropTarget=0;fillColor=none;" parent="table-exceptionflow-teamproject" vertex="1">
          <mxGeometry y="180" width="740" height="110" as="geometry" />
        </mxCell>
        <mxCell id="exceptionflow-r2c1" value="&lt;b&gt;4a. Không có quyền tạo/gán dự án&lt;/b&gt;&lt;br&gt;Người dùng cố gắng tạo hoặc gán dự án mà không có quyền phù hợp." style="shape=partialRectangle;html=1;collapsible=0;dropTarget=0;pointerEvents=0;fillColor=none;top=0;left=0;bottom=0;right=0;strokeColor=inherit;align=left;verticalAlign=top;whiteSpace=wrap;spacingLeft=5;" parent="exceptionflow-row2" vertex="1">
          <mxGeometry width="370" height="110" as="geometry" />
        </mxCell>
        <mxCell id="exceptionflow-r2c2" value="1. Hệ thống hiển thị thông báo 'Không có quyền thực hiện thao tác này'.&lt;br&gt;2. Ngăn chặn thao tác và quay về giao diện trước đó." style="shape=partialRectangle;html=1;collapsible=0;dropTarget=0;pointerEvents=0;fillColor=none;top=0;left=0;bottom=0;right=0;strokeColor=inherit;align=left;verticalAlign=top;whiteSpace=wrap;spacingLeft=5;" parent="exceptionflow-row2" vertex="1">
          <mxGeometry x="370" width="370" height="110" as="geometry" />
        </mxCell>
        <mxCell id="exceptionflow-row3" style="shape=tableRow;horizontal=0;startSize=0;swimlaneHead=0;swimlaneBody=0;top=0;left=0;bottom=0;right=0;collapsible=0;dropTarget=0;fillColor=none;" parent="table-exceptionflow-teamproject" vertex="1">
          <mxGeometry y="290" width="740" height="120" as="geometry" />
        </mxCell>
        <mxCell id="exceptionflow-r3c1" value="&lt;b&gt;4b. Dự án đã được gán vào nhóm khác&lt;/b&gt;&lt;br&gt;Khi gán dự án có sẵn, dự án đó đã thuộc về nhóm khác." style="shape=partialRectangle;html=1;collapsible=0;dropTarget=0;pointerEvents=0;fillColor=none;top=0;left=0;bottom=0;right=0;strokeColor=inherit;align=left;verticalAlign=top;whiteSpace=wrap;spacingLeft=5;" parent="exceptionflow-row3" vertex="1">
          <mxGeometry width="370" height="120" as="geometry" />
        </mxCell>
        <mxCell id="exceptionflow-r3c2" value="1. Hệ thống hiển thị thông báo 'Dự án đã thuộc về nhóm khác'.&lt;br&gt;2. Hiển thị thông tin nhóm hiện tại của dự án.&lt;br&gt;3. Gợi ý tạo dự án mới hoặc chọn dự án khác." style="shape=partialRectangle;html=1;collapsible=0;dropTarget=0;pointerEvents=0;fillColor=none;top=0;left=0;bottom=0;right=0;strokeColor=inherit;align=left;verticalAlign=top;whiteSpace=wrap;spacingLeft=5;" parent="exceptionflow-row3" vertex="1">
          <mxGeometry x="370" width="370" height="120" as="geometry" />
        </mxCell>
      </root>
    </mxGraphModel>
  </diagram>
</mxfile>
